<svg id="lock_closed_black_24dp" xmlns="http://www.w3.org/2000/svg" width="64" height="64" viewBox="0 0 64 64">
  <path id="Path_4" data-name="Path 4" d="M0,0H64V64H0Z" fill="rgba(0,0,0,0)"/>
  <path id="Path_5" data-name="Path 5" d="M53,21.333H49.5v-5.81c0-4.153-2.026-8.649-6.418-10.065C39.566,4.321,33.884,4,29.228,4A33.251,33.251,0,0,0,21.1,5.459c-1.622.489-4.039,1.256-5,2.669a9.036,9.036,0,0,0-1.285,2.154c-.842,1.848-.69,8.1-.69,11.052H21.1c0-4.822-.923-10.361,4.833-10.471,3.627-.069,10.008-.555,13.9.442a4.32,4.32,0,0,1,2.923,4.219v5.81H11c-3.85,0-7,2.614-7,5.81V56.19C4,59.386,7.15,62,11,62H53c3.85,0,7-2.614,7-5.81V27.143C60,23.948,56.85,21.333,53,21.333ZM53,56.19H11V27.143H53ZM32,47.476c3.85,0,7-2.614,7-5.81s-3.15-5.81-7-5.81-7,2.614-7,5.81S28.15,47.476,32,47.476Z" transform="translate(0 0)"/>
</svg>
