<svg id="lock_open_black_24dp" xmlns="http://www.w3.org/2000/svg" width="64" height="64" viewBox="0 0 64 64">
  <path id="Path_4" data-name="Path 4" d="M0,0H64V64H0Z" fill="rgba(0,0,0,0)"/>
  <path id="Path_5" data-name="Path 5" d="M53,21.333H49.5v-5.81C49.5,7.507,41.66,1,32,1S14.5,7.507,14.5,15.524h7C21.5,10.7,26.19,6.81,32,6.81S42.5,10.7,42.5,15.524v5.81H11c-3.85,0-7,2.614-7,5.81V56.19C4,59.386,7.15,62,11,62H53c3.85,0,7-2.614,7-5.81V27.143C60,23.948,56.85,21.333,53,21.333ZM53,56.19H11V27.143H53ZM32,47.476c3.85,0,7-2.614,7-5.81s-3.15-5.81-7-5.81-7,2.614-7,5.81S28.15,47.476,32,47.476Z" transform="translate(0 0)"/>
</svg>
